# xmcd CD database file
#
# Track frame offsets:
#	150
#	8860
#	17247
#	26612
#	42307
#	57400
#	68185
#	98325
#	114790
#	129285
#	144600
#	162522
#	173782
#	193570
#	203095
#	221170
#	233362
#	243567
#
# Disc length: 3555 seconds
#
# Revision: 0
# Processed by: cddbd v1.5.2PL0 Copyright (c) Steve Scherf et al.
# Submitted via: CDex 1.51
#
DISCID=f00de112
DTITLE=Johnny Cash - At San Quintin
DYEAR=1969
DGENRE=Country
TTITLE0=Big river
TTITLE1=I still miss someone
TTITLE2=Wreck of the old 97
TTITLE3=I walk the line
TTITLE4=Darlin' companion
TTITLE5=I don't know where I'm bound'
TTITLE6=Starkville city jail
TTITLE7=San Quintin
TTITLE8=San Quintin
TTITLE9=Wanted man
TTITLE10=A boy named Sue
TTITLE11=(There'll be) Peace in the valley
TTITLE12=Folsom prison blues
TTITLE13=Ring of fire
TTITLE14=He turned the water into wine
TTITLE15=Daddy sang bass
TTITLE16=The old account was settled long ago
TTITLE17=Closing medley
EXTD=YEAR: 1969
EXTT0=
EXTT1=
EXTT2=
EXTT3=
EXTT4=
EXTT5=
EXTT6=
EXTT7=
EXTT8=
EXTT9=
EXTT10=
EXTT11=
EXTT12=
EXTT13=
EXTT14=
EXTT15=
EXTT16=
EXTT17=
PLAYORDER=
